<svg width="64" height="64" viewBox="0 0 64 64" fill="none" xmlns="http://www.w3.org/2000/svg">
  <path d="M20 58 C16 58 14 54 14 50 L14 36 C14 28 20 22 28 20 L28 16 C28 10 34 6 40 8 C44 9.5 46 13 46 17 L46 20 C50 22 52 26 52 30 L52 42 C52 50 46 56 38 58 Z" fill="url(#bodyGrad)"/>
  <path d="M18 36 C18 32 22 28 28 28 L28 48 C22 48 18 44 18 40 Z" fill="url(#wingGrad)" opacity="0.85"/>
  <ellipse cx="40" cy="16" rx="10" ry="11" fill="url(#headGrad)"/>
  <circle cx="43" cy="14" r="3.5" fill="#0f172a"/>
  <circle cx="43" cy="14" r="2.5" fill="#e2e8f0"/>
  <circle cx="43" cy="14" r="1.5" fill="#0f172a"/>
  <circle cx="44" cy="13" r="0.7" fill="#fff"/>
  <path d="M48 15 L56 13 L54 17 L48 17 Z" fill="url(#beakGrad)"/>
  <path d="M34 7 L32 2 L36 5 L34 1 L38 4 L37 0 L40 5" stroke="url(#crestGrad)" stroke-width="1.8" fill="none" stroke-linecap="round" stroke-linejoin="round"/>
  <path d="M22 54 L16 62 L20 56" fill="url(#tailGrad1)" opacity="0.9"/>
  <path d="M26 56 L22 64 L26 58" fill="url(#tailGrad2)" opacity="0.85"/>
  <path d="M30 56 L28 63 L31 57" fill="url(#tailGrad1)" opacity="0.75"/>
  <path d="M30 56 L28 60 L26 60 M28 60 L30 61" stroke="#f59e0b" stroke-width="1.5" stroke-linecap="round" fill="none"/>
  <path d="M38 56 L36 60 L34 60 M36 60 L38 61" stroke="#f59e0b" stroke-width="1.5" stroke-linecap="round" fill="none"/>
  <defs>
    <linearGradient id="bodyGrad" x1="14" y1="20" x2="52" y2="58">
      <stop offset="0%" stop-color="#6366f1"/>
      <stop offset="50%" stop-color="#7c3aed"/>
      <stop offset="100%" stop-color="#2dd4bf"/>
    </linearGradient>
    <linearGradient id="headGrad" x1="30" y1="6" x2="50" y2="26">
      <stop offset="0%" stop-color="#818cf8"/>
      <stop offset="100%" stop-color="#6366f1"/>
    </linearGradient>
    <linearGradient id="wingGrad" x1="18" y1="28" x2="28" y2="48">
      <stop offset="0%" stop-color="#4f46e5"/>
      <stop offset="100%" stop-color="#0d9488"/>
    </linearGradient>
    <linearGradient id="beakGrad" x1="48" y1="13" x2="56" y2="17">
      <stop offset="0%" stop-color="#fbbf24"/>
      <stop offset="100%" stop-color="#f59e0b"/>
    </linearGradient>
    <linearGradient id="crestGrad" x1="32" y1="0" x2="40" y2="7">
      <stop offset="0%" stop-color="#f43f5e"/>
      <stop offset="50%" stop-color="#f59e0b"/>
      <stop offset="100%" stop-color="#6366f1"/>
    </linearGradient>
    <linearGradient id="tailGrad1" x1="16" y1="54" x2="22" y2="64">
      <stop offset="0%" stop-color="#6366f1"/>
      <stop offset="100%" stop-color="#2dd4bf"/>
    </linearGradient>
    <linearGradient id="tailGrad2" x1="22" y1="56" x2="26" y2="64">
      <stop offset="0%" stop-color="#8b5cf6"/>
      <stop offset="100%" stop-color="#f59e0b"/>
    </linearGradient>
  </defs>
</svg>
